
<svg version="1.1" xmlns="http://www.w3.org/2000/svg" width="1254" height="1254" viewBox="0 0 1254 1254" preserveAspectRatio="xMidYMid meet">
<path d="M0 0 C413.82 0 827.64 0 1254 0 C1254 413.82 1254 827.64 1254 1254 C840.18 1254 426.36 1254 0 1254 C0 840.18 0 426.36 0 0 Z " fill="#16171b" transform="translate(0,0)" />
<path d="M0 0 C0.65297058 0.08870361 1.30594116 0.17740723 1.97869873 0.26879883 C11.73527037 1.59460577 21.47771387 2.97388833 31.16455078 4.74511719 C32.57583025 5.00219409 33.98832701 5.25266171 35.40185547 5.49707031 C47.23257331 7.55345471 58.79285241 10.48954297 70.375 13.625 C71.4441716 13.91204803 71.4441716 13.91204803 72.53494263 14.20489502 C79.84550132 16.17605199 87.01929646 18.236696 94.00878906 21.18652344 C96.25124378 22.12552081 98.50997568 22.96025534 100.80078125 23.7734375 C137.0348987 36.81222977 170.20144493 56.16657787 200.25 80.125 C201.13510254 80.83003662 201.13510254 80.83003662 202.03808594 81.54931641 C211.41133166 89.12042807 219.94721881 97.59379644 228.5 106.0625 C229.04985565 106.60272797 229.5997113 107.14295593 230.16622925 107.69955444 C237.75434893 115.17375243 244.57791272 122.97017533 250.99649048 131.47036743 C252.33496389 133.23715234 253.69106257 134.9894332 255.05004883 136.74047852 C271.66782788 158.2278836 284.54620224 183.42087878 293.25 209.125 C293.57991943 210.08817139 293.57991943 210.08817139 293.91650391 211.07080078 C298.12393406 223.48935654 301.49533675 236.15670988 302.98828125 249.203125 C303.1073584 250.23751709 303.22643555 251.27190918 303.34912109 252.33764648 C303.57026933 254.36356219 303.77071975 256.39187288 303.94775391 258.42211914 C304.42877385 262.9626797 304.70563521 265.44701024 307.62109375 269.078125 C308.92240234 270.09132813 308.92240234 270.09132813 310.25 271.125 C317.40469911 277.87215296 323.32473205 285.30756115 329.25 293.125 C329.9291748 294.01300293 329.9291748 294.01300293 330.62207031 294.91894531 C364.0164099 338.71440582 388.31737374 393.08254635 391.12109375 448.63574219 C391.9695502 471.60191553 391.91129959 494.38483039 388.25 517.125 C388.1272168 517.89730957 388.00443359 518.66961914 387.87792969 519.46533203 C387.12718722 524.04734288 386.21746527 528.58315565 385.25 533.125 C384.87294922 535.04505859 384.87294922 535.04505859 384.48828125 537.00390625 C372.59403627 595.83768929 344.91999201 651.56477193 307.02734375 697.94921875 C305.79413788 699.45887957 304.57914316 700.98352869 303.37890625 702.51953125 C298.4544652 708.81132212 293.16405012 714.70205525 287.72070312 720.54101562 C286.22698539 722.14978732 284.74492975 723.76859724 283.265625 725.390625 C274.99081914 734.45024951 266.61539901 743.41132447 257.26953125 751.38671875 C254.92935811 753.4009877 252.65532345 755.48077392 250.375 757.5625 C245.49000491 761.9642003 240.43294262 766.08108164 235.25 770.125 C234.35539063 770.83785156 233.46078125 771.55070313 232.5390625 772.28515625 C215.06154484 786.02404481 196.61037631 798.21878941 177.25 809.125 C175.83364258 809.9308252 175.83364258 809.9308252 174.38867188 810.75292969 C158.78328142 819.594585 142.7754333 827.16684974 126.25 834.125 C125.44780029 834.46362061 124.64560059 834.80224121 123.8190918 835.15112305 C80.65115493 852.89849418 34.63986536 863.23076966 -11.75 867.125 C-12.62895432 867.20833084 -13.50790863 867.29166168 -14.41349792 867.3775177 C-21.62204805 868.03483018 -28.75954086 868.28532376 -35.99609375 868.29296875 C-37.12789566 868.29629715 -38.25969757 868.29962555 -39.42579651 868.30305481 C-41.80819294 868.3080844 -44.19059631 868.31046437 -46.57299805 868.31030273 C-50.14709639 868.31247544 -53.72087847 868.33063651 -57.29492188 868.34960938 C-70.52026227 868.38199394 -83.50527191 867.89196487 -96.64450073 866.36654663 C-99.42753774 866.04727166 -102.21528494 865.78496713 -105.00390625 865.51953125 C-132.64389935 862.59611941 -160.03342432 856.70338268 -186.75 849.125 C-187.73709961 848.84688477 -188.72419922 848.56876953 -189.74121094 848.28222656 C-245.02440221 832.53689758 -299.57635497 805.8716423 -344.984375 770.49365234 C-346.67523575 769.1829547 -348.38057132 767.89461305 -350.09375 766.61328125 C-358.01927428 760.65959497 -365.51693915 754.27471336 -372.94165039 747.71240234 C-374.13297174 746.66663869 -375.33255707 745.63020374 -376.54077148 744.60400391 C-382.48313376 739.52465311 -388.01655039 734.0445747 -393.5402832 728.52001953 C-395.17575882 726.88672552 -396.81907708 725.2616153 -398.46289062 723.63671875 C-405.01319407 717.12122813 -411.00361272 710.3722391 -416.75 703.125 C-417.79773546 701.87674619 -418.8505169 700.63269587 -419.91015625 699.39453125 C-434.94722729 681.60096135 -447.18474288 661.84490635 -457.75 641.125 C-458.15798828 640.33351563 -458.56597656 639.54203125 -458.98632812 638.7265625 C-465.33287214 626.30531984 -470.11954976 613.43384643 -474.65429688 600.2565918 C-475.41000792 598.09671978 -476.18882278 595.94484055 -476.98632812 593.80004883 C-480.19025497 585.14394342 -482.66847888 576.41939373 -484.75 567.4375 C-485.00330078 566.34560867 -485.00330078 566.34560867 -485.26171875 565.23165894 C-496.54568653 516.07706737 -498.89303947 463.83846764 -483.75 415.125 C-483.22962158 413.43648926 -483.22962158 413.43648926 -482.69873047 411.71386719 C-477.70724574 395.72197404 -472.12860413 380.19186566 -464.75 365.125 C-464.35312988 364.2985498 -463.95625977 363.47209961 -463.54736328 362.62060547 C-452.30886444 339.22972748 -438.66744949 317.62520846 -422.75 297.125 C-422.10933594 296.29097656 -421.46867187 295.45695312 -420.80859375 294.59765625 C-416.25387093 288.77313192 -411.35745334 283.3329905 -406.328125 277.921875 C-404.31072683 275.73330365 -402.35924807 273.52115681 -400.4375 271.25 C-392.60623379 262.22701936 -383.87814598 253.82062672 -374.75 246.125 C-373.31914062 244.86042969 -373.31914062 244.86042969 -371.859375 243.5703125 C-329.57389756 206.32921847 -277.3437219 176.55784386 -223.75 159.125 C-222.44216553 158.6926001 -222.44216553 158.6926001 -221.10791016 158.25146484 C-210.82897744 154.85721587 -200.49768857 151.69231201 -190.0625 148.8125 C-188.75466553 148.44886353 -188.75466553 148.44886353 -187.42041016 148.07788086 C-182.03509183 146.62229215 -176.65587886 145.49990083 -171.15380859 144.57788086 C-168.50849961 144.12500046 -168.50849961 144.12500046 -165.0625 143 C-161.10199274 141.95382827 -157.83243271 141.98175675 -153.75 142.125 C-153.75 141.465 -153.75 140.805 -153.75 140.125 C-119.83642887 134.61590382 -119.83642887 134.61590382 -105.4296875 134.265625 C-101.79677312 134.19116489 -101.79677312 134.19116489 -98.41796875 133.64453125 C-80.66592979 131.1301317 -62.07496775 132.00094663 -44.18533325 131.94876099 C-41.84944405 131.9413728 -39.5135623 131.93079955 -37.17770386 131.91671753 C-20.92896384 131.82805272 -4.9235416 132.57669177 11.25 134.125 C12.75516793 134.26321741 14.26037248 134.40103702 15.765625 134.53833008 C19.40865058 134.88043125 23.04807759 135.24671623 26.6875 135.625 C27.87408203 135.74230469 29.06066406 135.85960937 30.28320312 135.98046875 C36.13433784 136.58341116 41.82657783 137.37363233 47.57421875 138.61523438 C50.78853627 139.22759706 54.00528198 139.60899379 57.25390625 140 C66.03997648 141.13126316 74.57291933 143.09134593 83.1875 145.125 C84.73748501 145.48500071 86.28761493 145.84437813 87.83789062 146.203125 C111.99866885 151.81342665 136.60768239 157.89591333 159.38671875 167.88671875 C160.99336926 168.58154578 162.60692811 169.26227331 164.24072266 169.890625 C172.45789241 173.05753422 180.33872596 176.89904365 188.25 180.75 C188.97867279 181.1033844 189.70734558 181.4567688 190.45809937 181.82086182 C200.49934181 186.69622681 210.40585088 191.73122742 220.08203125 197.3046875 C222.44629876 198.66319386 224.79251931 199.94887574 227.25 201.125 C218.82128239 185.31051216 208.96599289 170.70342429 197.25 157.125 C196.60417969 156.36832031 195.95835937 155.61164063 195.29296875 154.83203125 C184.64070272 142.67256123 173.14193466 130.90447855 160.25 121.125 C159.04021473 120.18639103 157.83059072 119.24757419 156.62109375 118.30859375 C141.66706728 106.80106835 125.89718915 96.98400828 109.25 88.125 C108.60804688 87.77872559 107.96609375 87.43245117 107.3046875 87.07568359 C95.65035443 80.82488936 83.43107534 76.03268285 71.11572266 71.25024414 C69.29664992 70.53597372 67.48300599 69.80759054 65.67724609 69.06030273 C59.43678305 66.47797806 53.1322744 64.48681302 46.625 62.6875 C45.54541016 62.3874707 44.46582031 62.08744141 43.35351562 61.77832031 C32.95793114 58.94837765 22.47994325 56.6694076 11.90234375 54.63623047 C9.53569204 54.18006619 7.17408477 53.70418122 4.8125 53.22265625 C-15.11946658 49.29032654 -35.44294475 48.79022514 -55.69799805 48.86425781 C-59.20964509 48.87506817 -62.72078923 48.86423548 -66.23242188 48.8515625 C-78.57298841 48.84391658 -90.54113951 49.34571379 -102.75 51.125 C-104.72188093 51.35694946 -106.69448467 51.58289246 -108.66796875 51.80078125 C-120.98181694 53.25799413 -132.92561561 55.47396808 -144.9609375 58.44677734 C-147.75932455 59.12726747 -150.56490796 59.76429824 -153.375 60.39453125 C-184.15335024 67.46311847 -213.82610089 79.54313163 -241.78808594 94.109375 C-243.88412364 95.19443185 -245.99217859 96.25364296 -248.1015625 97.3125 C-263.2643452 105.00998241 -277.53740545 114.11346791 -291.7734375 123.390625 C-292.53640137 123.88763916 -293.29936523 124.38465332 -294.08544922 124.89672852 C-295.46800041 125.80101617 -296.84755694 126.70991011 -298.22314453 127.62475586 C-302.01265375 130.11795816 -305.85499354 132.27422115 -309.94018555 134.24829102 C-311.66708049 135.08483219 -313.36586968 135.978667 -315.0625 136.875 C-320.69824761 138.78542292 -326.20951824 139.10743735 -331.98828125 137.50390625 C-337.43701294 135.1233924 -341.45089662 131.02106067 -344.75 126.125 C-346.4132226 121.29187081 -346.41782463 116.14704121 -345.75 111.125 C-342.87028532 103.19398251 -337.09026221 98.38495239 -330.50634766 93.45751953 C-328.5334576 91.96071193 -326.60072662 90.41935665 -324.66796875 88.87109375 C-309.84074711 77.05105548 -294.21445078 66.52783684 -277.75 57.125 C-276.95674316 56.67157227 -276.16348633 56.21814453 -275.34619141 55.75097656 C-198.42027627 12.10568759 -103.30546309 -10.37894105 0 0 Z " fill="#DCE775" transform="translate(684.75,185.875)" />
<path d="M0 0 C0.91057159 -0.00133942 1.82114319 -0.00267883 2.75930786 -0.00405884 C21.80500745 0.00194111 40.6516635 1.2390895 59.60198975 3.05401611 C62.69788971 3.34495043 65.79643476 3.60471781 68.89453125 3.87109375 C117.16065097 8.31698422 165.07609847 22.25054486 208.6875 43.25 C209.48446289 43.62801758 210.28142578 44.00603516 211.10253906 44.39550781 C230.40431489 53.58428356 248.80178665 64.27614758 266.01171875 76.9765625 C269.00465963 79.16034907 271.92374444 80.93695462 275.26953125 82.5234375 C279.65642779 84.75207478 283.29090491 86.81330334 285.6875 91.25 C291.55736503 116.43742781 281.63925619 147.46978328 272.65234375 170.92724609 C270.38139464 176.39430324 267.81590368 181.72914465 265.25 187.0625 C264.94203491 187.70317413 264.63406982 188.34384827 264.31677246 189.00393677 C258.86770847 200.28132101 252.80102535 210.92643644 245.6875 221.25 C245.2548584 221.88389648 244.8222168 222.51779297 244.37646484 223.17089844 C238.20532119 232.16564258 231.50903575 240.74299252 224.6875 249.25 C223.92566406 250.20777344 223.16382813 251.16554688 222.37890625 252.15234375 C217.58607285 258.10707616 212.54830104 263.77524677 207.34765625 269.37109375 C205.06579125 271.8406011 202.84099139 274.34677499 200.625 276.875 C196.12251581 281.89135467 191.38274093 286.66383075 186.625 291.4375 C185.86888428 292.19820801 185.11276855 292.95891602 184.33374023 293.74267578 C180.16678281 297.89829887 175.9133159 301.88865521 171.45385742 305.72875977 C169.22133192 307.651478 167.04950334 309.63710027 164.875 311.625 C159.62351708 316.3521291 154.21739505 320.85346283 148.6875 325.25 C148.03749023 325.76723633 147.38748047 326.28447266 146.71777344 326.81738281 C105.27571343 359.67867731 57.40820184 390.05310658 7.625 408.375 C6.95726562 408.62161377 6.28953125 408.86822754 5.6015625 409.12231445 C0.61265911 410.95082386 -4.41096214 412.66406354 -9.46875 414.29296875 C-11.71902447 415.05027266 -13.92998118 415.85249403 -16.1484375 416.6953125 C-48.93726715 429.07390425 -83.32229279 435.83953976 -118 440 C-118.89110474 440.10718353 -119.78220947 440.21436707 -120.70031738 440.32479858 C-138.13748915 442.39930124 -155.43984831 443.48720469 -173 443.5 C-174.26799942 443.50101212 -174.26799942 443.50101212 -175.56161499 443.50204468 C-229.16625296 443.43475352 -285.19114437 431.24831085 -330.3125 401.25 C-335.93088687 397.24551659 -341.18965823 392.86618709 -346.3125 388.25 C-346.82844727 387.78916016 -347.34439453 387.32832031 -347.87597656 386.85351562 C-366.17482823 370.26223384 -380.20145561 346.40491934 -385.87036133 322.42236328 C-388.02931806 311.81474486 -388.65892999 301.47933526 -388.62817383 290.69189453 C-388.62501227 288.38395916 -388.64858909 286.0773098 -388.67382812 283.76953125 C-388.71681172 273.57984235 -387.55529926 264.19667717 -385.3125 254.25 C-385.16290329 253.57700867 -385.01330658 252.90401733 -384.85917664 252.21063232 C-376.37735542 214.19941307 -357.49120454 176.91917414 -332.3125 147.25 C-331.63316406 146.40050781 -330.95382812 145.55101562 -330.25390625 144.67578125 C-321.82113915 134.13858029 -312.57556867 124.43465243 -303.0625 114.875 C-302.41337646 114.22120361 -301.76425293 113.56740723 -301.09545898 112.89379883 C-257.93882859 69.87958148 -197.9795265 37.16990671 -139.3125 21.25 C-138.50071289 21.02683105 -137.68892578 20.80366211 -136.85253906 20.57373047 C-101.94976934 11.04614912 -67.26443907 4.84676161 -31.3125 1.25 C-30.29953857 1.14252441 -29.28657715 1.03504883 -28.24291992 0.92431641 C-18.84631985 0.01335892 -9.43242553 0.00824953 0 0 Z " fill="#16171b" transform="translate(648.3125,375.75)" />
<path d="M0 0 C0.66 0 1.32 0 2 0 C21.75179544 31.15110291 35.9815227 67.13574135 36.203125 104.5390625 C36.21013931 105.33396088 36.21715363 106.12885925 36.22438049 106.94784546 C36.24182195 109.50695509 36.24823543 112.06583306 36.25 114.625 C36.25067474 115.5005957 36.25134949 116.37619141 36.25204468 117.27832031 C36.23555555 130.74577674 35.63981463 143.75972 33 157 C32.82839355 157.89928223 32.65678711 158.79856445 32.47998047 159.72509766 C21.85980313 214.64821318 -1.75505098 266.10805609 -35 311 C-35.40041504 311.54076172 -35.80083008 312.08152344 -36.21337891 312.63867188 C-42.75767963 321.42063321 -49.75370656 329.7904434 -57 338 C-57.97743164 339.11097046 -57.97743164 339.11097046 -58.97460938 340.24438477 C-64.42991304 346.38160139 -70.09645181 352.28271754 -75.90136719 358.08666992 C-77.3720641 359.55955972 -78.83453534 361.04030265 -80.296875 362.52148438 C-86.52986283 368.7909148 -93.08099341 374.49175373 -100 380 C-101.0513292 380.88644683 -102.098193 381.77827453 -103.13671875 382.6796875 C-111.00426857 389.45084063 -119.3605965 395.26714298 -128 401 C-128.68755371 401.46051758 -129.37510742 401.92103516 -130.08349609 402.39550781 C-138.11222498 407.76303937 -146.25983545 412.84255874 -154.6875 417.5625 C-155.42983887 417.98023682 -156.17217773 418.39797363 -156.93701172 418.82836914 C-160.87577186 420.9948222 -164.65969785 422.73550252 -169 424 C-169 424.66 -169 425.32 -169 426 C-169.59425781 426.21914063 -170.18851563 426.43828125 -170.80078125 426.6640625 C-175.59816137 428.4994521 -180.0900362 430.52936725 -184.5625 433.0625 C-190.03008784 436.12590028 -195.62840867 439 -202 439 C-202 439.66 -202 440.32 -202 441 C-216.20552414 446.11896763 -230.48993137 450.81810952 -245 455 C-246.00820801 455.29406738 -247.01641602 455.58813477 -248.05517578 455.89111328 C-262.36475239 460.01138923 -276.69058441 463.00046837 -291.375 465.375 C-292.15868958 465.50246613 -292.94237915 465.62993225 -293.74981689 465.76126099 C-296.02732394 466.12770031 -298.30611744 466.48419752 -300.5859375 466.8359375 C-301.242453 466.93977249 -301.89896851 467.04360748 -302.57537842 467.15058899 C-313.83324426 468.83399602 -325.14548723 469.1706678 -336.51171875 469.23828125 C-337.18122999 469.24302145 -337.85074123 469.24776165 -338.5405407 469.25264549 C-343.58951915 469.2877849 -348.6384166 469.3029356 -353.6875 469.3125 C-354.42422691 469.3145343 -355.16095383 469.3165686 -355.9200058 469.31866455 C-378.15293033 469.37625711 -400.04286571 468.88786555 -422 465 C-422 464.34 -422 463.68 -422 463 C-421.44876465 462.91024902 -420.8975293 462.82049805 -420.32958984 462.72802734 C-396.95404831 458.85860664 -373.26951624 453.14331227 -351.37719727 443.89160156 C-349 443 -349 443 -346 443 C-346 442.34 -346 441.68 -346 441 C-345.27296875 440.78085937 -344.5459375 440.56171875 -343.796875 440.3359375 C-337.09225304 438.22140288 -330.98142176 435.62053217 -324.75 432.375 C-322.43022515 431.21511258 -320.196638 430.27853181 -317.75 429.4375 C-314.19571407 428.19386786 -311.25551196 426.39982436 -308.15234375 424.28125 C-306 423 -306 423 -303.01171875 421.76953125 C-297.37340866 419.41369138 -292.15577255 416.24179512 -286.875 413.1875 C-286.02112198 412.69437317 -286.02112198 412.69437317 -285.1499939 412.19128418 C-268.39626974 402.49109803 -252.43907738 391.67062399 -237 380 C-236.4440918 379.58298828 -235.88818359 379.16597656 -235.31542969 378.73632812 C-223.43900945 369.81683736 -212.20812031 360.26270658 -201.36328125 350.1171875 C-198.71529789 347.6418719 -196.01388211 345.23230244 -193.3046875 342.82421875 C-188.11629338 338.16358182 -183.15060342 333.30309402 -178.23071289 328.36108398 C-176.80662508 326.93160283 -175.37721956 325.50759489 -173.94726562 324.08398438 C-169.30761339 319.43786572 -164.79118317 314.7486328 -160.51782227 309.76293945 C-158.26861538 307.15050211 -155.91301814 304.64665542 -153.5625 302.125 C-149.48548679 297.71253634 -145.63534579 293.18565246 -141.9296875 288.453125 C-139.99500279 285.99364728 -138.00321849 283.59136219 -136 281.1875 C-124.49087128 267.11858231 -113.70912408 252.52842678 -103.61523438 237.41552734 C-101.95560451 234.93360808 -100.28332772 232.46055863 -98.609375 229.98828125 C-79.58341131 201.79224241 -62.37371316 172.63152659 -46.40942383 142.60961914 C-45.21631889 140.40052531 -43.9881778 138.22269739 -42.72265625 136.0546875 C-41.25265485 133.44801834 -40.09684371 130.98547122 -39.0625 128.1875 C-37.41103104 123.90663339 -35.48712926 119.86754184 -33.34375 115.8125 C-19.73220973 87.32322967 -10.37398198 54.85789688 -4.40136719 23.98974609 C-3.78465163 20.93242747 -3.045038 17.90631201 -2.3125 14.875 C-1.1433596 9.91250733 -0.43037924 5.07847501 0 0 Z " fill="#16171b" transform="translate(987,526)" />
<path d="M0 0 C0 3.52134302 -1.15117969 5.04347552 -3.09765625 7.88549805 C-3.79181641 8.87030151 -3.79181641 8.87030151 -4.5 9.875 C-4.98339844 10.56827393 -5.46679688 11.26154785 -5.96484375 11.97583008 C-15.96398237 26.16880941 -26.57252333 39.92897762 -38 53 C-38.60714844 53.70640625 -39.21429687 54.4128125 -39.83984375 55.140625 C-48.39779651 65.04771384 -57.37096679 74.53963913 -66.64428711 83.7746582 C-68.20089389 85.32584727 -69.75200171 86.88239392 -71.30273438 88.43945312 C-76.6962688 93.83689502 -82.17865213 99.06172441 -88 104 C-89.08340254 104.94895755 -90.16548334 105.89942668 -91.24609375 106.8515625 C-116.39604515 128.78979977 -144.26829663 148.05061013 -173.703125 163.77148438 C-176.11096864 165.05935312 -178.50826153 166.36576059 -180.90625 167.671875 C-208.43046777 182.52157496 -237.36357443 193.9453679 -267.48242188 202.28613281 C-269.56771599 202.87742451 -271.63788273 203.52177277 -273.703125 204.1796875 C-313.06694851 216.68691221 -363.915886 216.47764069 -403.36328125 204.28125 C-407 203 -407 203 -409.79296875 201.59375 C-412.59082137 200.20334334 -415.26480234 199.16622272 -418.20703125 198.140625 C-423.94156417 196.09264666 -429.29619846 193.57101879 -434.6875 190.75 C-436.15485596 189.98260498 -436.15485596 189.98260498 -437.65185547 189.19970703 C-454.02431737 180.42902423 -469.65117802 169.80090032 -484 158 C-484.54736816 157.55269531 -485.09473633 157.10539063 -485.65869141 156.64453125 C-501.13662513 143.93129174 -514.60589688 129.70992811 -527 114 C-523.92624818 114 -522.65955151 114.44343685 -519.921875 115.6875 C-518.69452637 116.23482788 -518.69452637 116.23482788 -517.44238281 116.79321289 C-516.10965332 117.39057251 -516.10965332 117.39057251 -514.75 118 C-437.27612864 151.71005592 -347.15815244 153.15457003 -265.22509766 136.91333008 C-262.14772823 136.28624968 -259.07347137 135.64588557 -256 135 C-255.14164551 134.8242041 -254.28329102 134.6484082 -253.39892578 134.46728516 C-211.54813451 125.77782025 -169.93553863 109.77333174 -132.12792969 90.10302734 C-129.65709896 88.82225483 -127.17607383 87.56220761 -124.6953125 86.30078125 C-80.7753968 63.84003471 -35.06732524 35.06732524 0 0 Z " fill="#16171b" transform="translate(841,735)" />
<path d="M0 0 C0 1.32 0 2.64 0 4 C-5.28 3.67 -10.56 3.34 -16 3 C-16 2.34 -16 1.68 -16 1 C-14.0852312 0.63571223 -12.16807707 0.28394694 -10.25 -0.0625 C-9.18265625 -0.25972656 -8.1153125 -0.45695313 -7.015625 -0.66015625 C-4.25228095 -0.97156937 -2.59053383 -0.8991416 0 0 Z " fill="#16171b" transform="translate(581,988)" />
<path d="M0 0 C0 4.08481881 -1.70119331 5.84704653 -4 9.1875 C-4.7425 10.27417969 -5.485 11.36085938 -6.25 12.48046875 C-6.8275 13.31191406 -7.405 14.14335938 -8 15 C-8.12375 14.360625 -8.2475 13.72125 -8.375 13.0625 C-8.58125 12.381875 -8.7875 11.70125 -9 11 C-9.66 10.67 -10.32 10.34 -11 10 C-5.555 5.05 -5.555 5.05 0 0 Z " fill="#16171b" transform="translate(841,735)" />
<path d="M0 0 C7.48291572 6.15034169 7.48291572 6.15034169 10 10 C9.01 10 8.02 10 7 10 C4.95703125 8.25 4.95703125 8.25 2.8125 6 C2.09707031 5.2575 1.38164062 4.515 0.64453125 3.75 C0.10183594 3.1725 -0.44085938 2.595 -1 2 C-0.67 1.34 -0.34 0.68 0 0 Z " fill="#DCE775" transform="translate(287,907)" />
<path d="M0 0 C2.72426311 2.35277269 3.8141763 4.62496331 5 8 C1.54074837 6.7508258 -1.14693203 5.32472205 -4 3 C-3.01 2.67 -2.02 2.34 -1 2 C-0.67 1.34 -0.34 0.68 0 0 Z " fill="#16171b" transform="translate(908,380)" />
<path d="M0 0 C5 2 5 2 10 4 C8.68 5.32 7.36 6.64 6 8 C4.9970458 6.85675161 3.99770973 5.71032809 3 4.5625 C2.443125 3.92441406 1.88625 3.28632812 1.3125 2.62890625 C0.879375 2.09136719 0.44625 1.55382812 0 1 C0 0.67 0 0.34 0 0 Z " fill="#16171b" transform="translate(314,848)" />
<path d="M0 0 C-1.98 0.33 -3.96 0.66 -6 1 C-6.33 1.99 -6.66 2.98 -7 4 C-9.64 3.67 -12.28 3.34 -15 3 C-10.42919136 0.44034716 -5.14097791 -2.05639116 0 0 Z " fill="#DCE775" transform="translate(586,935)" />
<path d="M0 0 C0.66 0.33 1.32 0.66 2 1 C1.45730469 1.47050781 0.91460937 1.94101562 0.35546875 2.42578125 C-0.71767578 3.35970703 -0.71767578 3.35970703 -1.8125 4.3125 C-2.52019531 4.92738281 -3.22789062 5.54226563 -3.95703125 6.17578125 C-5.70136739 7.73334335 -7.36778041 9.32658875 -9 11 C-9.66 10.34 -10.32 9.68 -11 9 C-7.37 6.03 -3.74 3.06 0 0 Z " fill="#DCE775" transform="translate(362,273)" />
<path d="M0 0 C0.66 0.33 1.32 0.66 2 1 C-0.3125 3.5 -0.3125 3.5 -3 6 C-3.99 6 -4.98 6 -6 6 C-4 4 -2 2 0 0 Z M-8 6 C-6 7 -6 7 -6 7 Z " fill="#16171b" transform="translate(912,961)" />
<path d="M0 0 C0.66 0.33 1.32 0.66 2 1 C0.375 3.0625 0.375 3.0625 -2 5 C-5.25 4.75 -5.25 4.75 -8 4 C-5.31143836 2.20762558 -3.0466145 1.01553817 0 0 Z M-7 5 C-5 6 -5 6 -5 6 Z " fill="#DCE775" transform="translate(793,962)" />
<path d="M0 0 C0.556875 0.20625 1.11375 0.4125 1.6875 0.625 C-1.26472849 2.708926 -2.96764983 3.60548018 -6.625 3.8125 C-7.511875 3.750625 -8.39875 3.68875 -9.3125 3.625 C-6.56038226 0.87288226 -3.94919553 -0.64041009 0 0 Z " fill="#DCE775" transform="translate(657.3125,783.375)" />
<path d="M0 0 C1.0625 1.875 1.0625 1.875 2 4 C1.67 4.66 1.34 5.32 1 6 C0.34 6 -0.32 6 -1 6 C-1.66 7.32 -2.32 8.64 -3 10 C-3.33 9.34 -3.66 8.68 -4 8 C-3.22265625 6.0546875 -3.22265625 6.0546875 -2.0625 3.875 C-1.68222656 3.15054688 -1.30195313 2.42609375 -0.91015625 1.6796875 C-0.60980469 1.12539063 -0.30945313 0.57109375 0 0 Z " fill="#16171b" transform="translate(285,570)" />
<path d="M0 0 C0 0.66 0 1.32 0 2 C-2.75 3.125 -2.75 3.125 -6 4 C-8.375 3.125 -8.375 3.125 -10 2 C-6.38026598 0.68373308 -3.90432869 0 0 0 Z " fill="#16171b" transform="translate(651,965)" />
<path d="M0 0 C0.66 0.33 1.32 0.66 2 1 C-0.1875 3.0625 -0.1875 3.0625 -3 5 C-5.8125 4.75 -5.8125 4.75 -8 4 C-5.31143836 2.20762558 -3.0466145 1.01553817 0 0 Z " fill="#DCE775" transform="translate(614,923)" />
<path d="M0 0 C3.36591866 1.44253657 5.51047079 3.33264727 8 6 C5 6 5 6 1.8125 4 C0.884375 3.34 -0.04375 2.68 -1 2 C-0.67 1.34 -0.34 0.68 0 0 Z " fill="#16171b" transform="translate(365,897)" />
<path d="M0 0 C0.66 0.33 1.32 0.66 2 1 C0.35 2.65 -1.3 4.3 -3 6 C-4.32 5.67 -5.64 5.34 -7 5 C-6.34 5 -5.68 5 -5 5 C-5 4.01 -5 3.02 -5 2 C-2.625 0.9375 -2.625 0.9375 0 0 Z " fill="#16171b" transform="translate(373,320)" />
<path d="M0 0 C0.66666667 2.66666667 1.33333333 5.33333333 2 8 C1.01 8.33 0.02 8.66 -1 9 C-1.33 9.66 -1.66 10.32 -2 11 C-1.125 3.375 -1.125 3.375 0 0 Z " fill="#DCE775" transform="translate(929,518)" />
<path d="M0 0 C2.31 1.98 4.62 3.96 7 6 C6.34 6.66 5.68 7.32 5 8 C2.5 5.6875 2.5 5.6875 0 3 C0 2.01 0 1.02 0 0 Z " fill="#DCE775" transform="translate(903,283)" />
<path d="M0 0 C0.66 0.33 1.32 0.66 2 1 C0.35 2.98 -1.3 4.96 -3 7 C-4.32 6.67 -5.64 6.34 -7 6 C-4.69 4.02 -2.38 2.04 0 0 Z " fill="#16171b" transform="translate(923,952)" />
<path d="M0 0 C0.66 0.33 1.32 0.66 2 1 C1.67 1.99 1.34 2.98 1 4 C-1.64 4.33 -4.28 4.66 -7 5 C-4.702779 3.25728062 -2.40133271 1.60088848 0 0 Z " fill="#16171b" transform="translate(681,949)" />
<path d="M0 0 C-0.33 0.66 -0.66 1.32 -1 2 C-3.64 1.67 -6.28 1.34 -9 1 C-9 0.67 -9 0.34 -9 0 C-5.62182575 -0.84454356 -3.32534757 -1.10844919 0 0 Z " fill="#16171b" transform="translate(581,988)" />
<path d="M0 0 C-0.33 0.99 -0.66 1.98 -1 3 C-3.64 3.33 -6.28 3.66 -9 4 C-3.7826087 0 -3.7826087 0 0 0 Z " fill="#DCE775" transform="translate(811,955)" />
<path d="M0 0 C0.33 0 0.66 0 1 0 C1.125 2.375 1.125 2.375 1 5 C0.34 5.66 -0.32 6.32 -1 7 C-1.99 6.67 -2.98 6.34 -4 6 C-2.68 4.02 -1.36 2.04 0 0 Z " fill="#DCE775" transform="translate(950,838)" />
<path d="M0 0 C0.66 0 1.32 0 2 0 C2.66 1.65 3.32 3.3 4 5 C2.68 5.33 1.36 5.66 0 6 C0 4.02 0 2.04 0 0 Z " fill="#16171b" transform="translate(987,526)" />
<path d="M0 0 C0 0.33 0 0.66 0 1 C-4.79137588 2.6290678 -8.05632546 3.20577428 -13 2 C-13 1.67 -13 1.34 -13 1 C-8.59085217 -0.10228696 -4.51617599 -0.07654536 0 0 Z " fill="#DCE775" transform="translate(572,321)" />
</svg>
